<svg width="120" height="120" viewBox="0 0 120 120" xmlns="http://www.w3.org/2000/svg">
  <!-- Background circle -->
  <circle cx="60" cy="60" r="55" fill="#FFE4E1" stroke="#FF69B4" stroke-width="2"/>
  
  <!-- Face -->
  <circle cx="60" cy="60" r="40" fill="#FFF8DC"/>
  
  <!-- Eyes -->
  <circle cx="50" cy="50" r="4" fill="#333"/>
  <circle cx="70" cy="50" r="4" fill="#333"/>
  <circle cx="51" cy="48" r="1" fill="#FFF"/>
  <circle cx="71" cy="48" r="1" fill="#FFF"/>
  
  <!-- Nose -->
  <ellipse cx="60" cy="58" rx="2" ry="1" fill="#FFB6C1"/>
  
  <!-- Mouth -->
  <path d="M 55 65 Q 60 70 65 65" stroke="#333" stroke-width="2" fill="none"/>
  
  <!-- Cheeks -->
  <circle cx="45" cy="60" r="3" fill="#FFB6C1" opacity="0.6"/>
  <circle cx="75" cy="60" r="3" fill="#FFB6C1" opacity="0.6"/>
  
  <!-- Hair -->
  <path d="M 25 45 Q 35 25 60 30 Q 85 25 95 45 Q 90 40 85 42 Q 75 35 60 35 Q 45 35 35 42 Q 30 40 25 45" fill="#8B4513"/>
  
  <!-- Text -->
  <text x="60" y="110" text-anchor="middle" font-family="Arial" font-size="12" fill="#333">通常</text>
</svg>