<svg width="120" height="120" viewBox="0 0 120 120" xmlns="http://www.w3.org/2000/svg">
  <!-- Background circle -->
  <circle cx="60" cy="60" r="55" fill="#FFE4E1" stroke="#FF1493" stroke-width="3"/>
  
  <!-- Sparkles -->
  <polygon points="25,25 27,30 32,28 27,33 25,38 23,33 18,28 23,30" fill="#FFD700"/>
  <polygon points="90,20 92,25 97,23 92,28 90,33 88,28 83,23 88,25" fill="#FFD700"/>
  <polygon points="95,75 97,80 102,78 97,83 95,88 93,83 88,78 93,80" fill="#FFD700"/>
  
  <!-- Face -->
  <circle cx="60" cy="60" r="40" fill="#FFF8DC"/>
  
  <!-- Eyes (happy) -->
  <path d="M 45 48 Q 50 44 55 48" stroke="#333" stroke-width="3" fill="none"/>
  <path d="M 65 48 Q 70 44 75 48" stroke="#333" stroke-width="3" fill="none"/>
  
  <!-- Nose -->
  <ellipse cx="60" cy="58" rx="2" ry="1" fill="#FFB6C1"/>
  
  <!-- Mouth (big smile) -->
  <path d="M 50 68 Q 60 78 70 68" stroke="#333" stroke-width="3" fill="none"/>
  
  <!-- Cheeks (rosy) -->
  <circle cx="42" cy="62" r="5" fill="#FF69B4" opacity="0.7"/>
  <circle cx="78" cy="62" r="5" fill="#FF69B4" opacity="0.7"/>
  
  <!-- Hair -->
  <path d="M 25 45 Q 35 25 60 30 Q 85 25 95 45 Q 90 40 85 42 Q 75 35 60 35 Q 45 35 35 42 Q 30 40 25 45" fill="#8B4513"/>
  
  <!-- Text -->
  <text x="60" y="110" text-anchor="middle" font-family="Arial" font-size="10" fill="#333">😊 うれしい！</text>
</svg>