<svg width="120" height="120" viewBox="0 0 120 120" xmlns="http://www.w3.org/2000/svg">
  <!-- Background circle -->
  <circle cx="60" cy="60" r="55" fill="#FFE4E1" stroke="#32CD32" stroke-width="3"/>
  
  <!-- Sparkles -->
  <polygon points="30,30 32,35 37,33 32,38 30,43 28,38 23,33 28,35" fill="#32CD32"/>
  <polygon points="85,25 87,30 92,28 87,33 85,38 83,33 78,28 83,30" fill="#32CD32"/>
  <polygon points="90,80 92,85 97,83 92,88 90,93 88,88 83,83 88,85" fill="#32CD32"/>
  
  <!-- Face -->
  <circle cx="60" cy="60" r="40" fill="#FFF8DC"/>
  
  <!-- Eyes (bright) -->
  <circle cx="50" cy="50" r="5" fill="#333"/>
  <circle cx="70" cy="50" r="5" fill="#333"/>
  <circle cx="51.5" cy="47.5" r="2" fill="#FFF"/>
  <circle cx="71.5" cy="47.5" r="2" fill="#FFF"/>
  
  <!-- Nose -->
  <ellipse cx="60" cy="58" rx="2" ry="1" fill="#FFB6C1"/>
  
  <!-- Mouth (wide smile) -->
  <path d="M 49 68 Q 60 76 71 68" stroke="#333" stroke-width="3" fill="none"/>
  
  <!-- Cheeks -->
  <circle cx="43" cy="62" r="4" fill="#32CD32" opacity="0.6"/>
  <circle cx="77" cy="62" r="4" fill="#32CD32" opacity="0.6"/>
  
  <!-- Hair -->
  <path d="M 25 45 Q 35 25 60 30 Q 85 25 95 45 Q 90 40 85 42 Q 75 35 60 35 Q 45 35 35 42 Q 30 40 25 45" fill="#8B4513"/>
  
  <!-- Thumbs up -->
  <g transform="translate(15,55)">
    <rect x="0" y="10" width="8" height="15" fill="#FDBCB4" rx="4"/>
    <rect x="8" y="5" width="6" height="10" fill="#FDBCB4" rx="3"/>
  </g>
  
  <!-- Text -->
  <text x="60" y="110" text-anchor="middle" font-family="Arial" font-size="10" fill="#333">👍 いいね！</text>
</svg>