<svg width="120" height="120" viewBox="0 0 120 120" xmlns="http://www.w3.org/2000/svg">
  <!-- Background circle -->
  <circle cx="60" cy="60" r="55" fill="#FFE4E1" stroke="#FFA500" stroke-width="2"/>
  
  <!-- Face -->
  <circle cx="60" cy="60" r="40" fill="#FFF8DC"/>
  
  <!-- Eyes (gentle) -->
  <circle cx="50" cy="50" r="4" fill="#333"/>
  <circle cx="70" cy="50" r="4" fill="#333"/>
  <circle cx="51" cy="48" r="1.5" fill="#FFF"/>
  <circle cx="71" cy="48" r="1.5" fill="#FFF"/>
  
  <!-- Eyebrows (gentle) -->
  <path d="M 45 45 Q 50 42 55 45" stroke="#8B4513" stroke-width="2" fill="none"/>
  <path d="M 65 45 Q 70 42 75 45" stroke="#8B4513" stroke-width="2" fill="none"/>
  
  <!-- Nose -->
  <ellipse cx="60" cy="58" rx="2" ry="1" fill="#FFB6C1"/>
  
  <!-- Mouth (gentle smile) -->
  <path d="M 54 66 Q 60 70 66 66" stroke="#333" stroke-width="2" fill="none"/>
  
  <!-- Cheeks -->
  <circle cx="45" cy="60" r="3" fill="#FFB6C1" opacity="0.6"/>
  <circle cx="75" cy="60" r="3" fill="#FFB6C1" opacity="0.6"/>
  
  <!-- Hair -->
  <path d="M 25 45 Q 35 25 60 30 Q 85 25 95 45 Q 90 40 85 42 Q 75 35 60 35 Q 45 35 35 42 Q 30 40 25 45" fill="#8B4513"/>
  
  <!-- Heart -->
  <path d="M 20 40 Q 20 35 25 35 Q 30 35 30 40 Q 30 45 25 50 Q 20 45 20 40" fill="#FF69B4" opacity="0.8"/>
  
  <!-- Text -->
  <text x="60" y="110" text-anchor="middle" font-family="Arial" font-size="10" fill="#333">💪 がんばって！</text>
</svg>